# xmcd
#
# Track frame offsets:
#	183
#	15638
#	28698
#	40363
#	54605
#	67878
#	80808
#	89295
#	104375
#	117328
#	132210
#	147610
#
# Disc length: 2197 seconds
#
# Revision: 1
# Processed by: cddbd v1.4PL0 Copyright (c) Steve Scherf et al.
# Submitted via: audiograbber 1.80
#
DISCID=a808930c
DTITLE=The Platters - International
DYEAR=1900
DGENRE=
TTITLE0=Only You
TTITLE1=My Prayer
TTITLE2=This World Is Not My Home
TTITLE3=Headin' Home
TTITLE4=Crying In The Chapel
TTITLE5=Put Your Hand In The Hand
TTITLE6=He's My Friend
TTITLE7=I Know Someone Who Can
TTITLE8=Why In The Name Of God
TTITLE9=Loving You
TTITLE10=Sweet Inspiration
TTITLE11=Cheep Up My Brother
EXTD=
EXTT0=
EXTT1=
EXTT2=
EXTT3=
EXTT4=
EXTT5=
EXTT6=
EXTT7=
EXTT8=
EXTT9=
EXTT10=
EXTT11=
PLAYORDER=
